<svg width="61" height="61" viewBox="0 0 61 61" fill="none" xmlns="http://www.w3.org/2000/svg">
<path opacity="0.4" d="M30.5786 32.0455C30.4036 32.0205 30.1786 32.0205 29.9786 32.0455C25.5786 31.8955 22.0786 28.2955 22.0786 23.8704C22.0786 19.3454 25.7286 15.6704 30.2786 15.6704C34.8036 15.6704 38.4786 19.3454 38.4786 23.8704C38.4536 28.2955 34.9786 31.8955 30.5786 32.0455Z" stroke="#292D32" stroke-width="3.75" stroke-linecap="round" stroke-linejoin="round"/>
<path opacity="0.34" d="M47.1263 48.5461C42.6763 52.6211 36.7763 55.0961 30.2763 55.0961C23.7763 55.0961 17.8763 52.6211 13.4263 48.5461C13.6763 46.1961 15.1763 43.8961 17.8513 42.0961C24.7013 37.5461 35.9013 37.5461 42.7013 42.0961C45.3763 43.8961 46.8763 46.1961 47.1263 48.5461Z" stroke="#292D32" stroke-width="3.75" stroke-linecap="round" stroke-linejoin="round"/>
<path d="M30.2769 55.0957C44.0839 55.0957 55.2769 43.9027 55.2769 30.0957C55.2769 16.2886 44.0839 5.0957 30.2769 5.0957C16.4697 5.0957 5.27686 16.2886 5.27686 30.0957C5.27686 43.9027 16.4697 55.0957 30.2769 55.0957Z" stroke="#292D32" stroke-width="3.75" stroke-linecap="round" stroke-linejoin="round"/>
</svg>
