<svg width="54" height="61" viewBox="0 0 54 61" fill="none" xmlns="http://www.w3.org/2000/svg">
<path d="M48.612 24.5884C48.7512 23.8414 48.8207 23.0907 48.8207 22.3472C48.8207 16.9713 45.4113 12.271 40.4051 10.5552C38.543 4.72879 33.1634 0.748047 26.958 0.748047C20.7526 0.748047 15.3711 4.72879 13.5107 10.5552C8.50283 12.2691 5.09514 16.9713 5.09514 22.3472C5.09514 23.0907 5.16475 23.8414 5.30209 24.5884C2.39432 27.2618 0.750061 30.9807 0.750061 34.9632C0.750061 42.758 7.09096 49.0989 14.8858 49.0989C16.4349 49.0989 17.9473 48.8499 19.4012 48.3591C21.0912 49.5566 23.0431 50.3311 25.0829 50.6277V60.748H26.0204H27.8954H28.8329V50.6279C30.8726 50.3312 32.8246 49.5566 34.5146 48.3592C35.9667 48.85 37.481 49.099 39.0299 49.099C46.8248 49.099 53.1657 42.7581 53.1657 34.9633C53.1659 30.9805 51.5198 27.2617 48.612 24.5884ZM39.0302 45.3489C37.6129 45.3489 36.2378 45.067 34.9378 44.5103L33.8721 44.0525L32.9858 44.8032C31.5428 46.0264 29.7612 46.7771 27.8954 46.9675V42.0603L35.2251 33.685L33.8135 32.4509L27.8955 39.2148V32.308L33.8062 25.5515L32.3944 24.3174L27.8955 29.459V18.8718H26.0205V29.4607L21.5198 24.3173L20.108 25.5514L26.0205 32.3082V39.215L20.1025 32.451L18.6908 33.6851L26.0205 42.0603V46.9675C24.1528 46.7771 22.373 46.0264 20.9283 44.8032L20.0439 44.0525L18.9765 44.5102C17.6783 45.0668 16.3013 45.3488 14.8859 45.3488C9.15838 45.3488 4.50018 40.6906 4.50018 34.963C4.50018 31.7385 5.97241 28.7485 8.53764 26.7599L9.54112 25.9799L9.19143 24.7605C8.96069 23.9584 8.84537 23.1455 8.84537 22.3471C8.84537 18.3224 11.5755 14.8397 15.4847 13.8784L16.598 13.6038L16.8617 12.4886C17.9749 7.78293 22.1259 4.49805 26.958 4.49805C31.7901 4.49805 35.9411 7.78293 37.0526 12.4888L37.3163 13.604L38.4296 13.8787C42.3389 14.84 45.0708 18.3227 45.0708 22.3473C45.0708 23.1457 44.9537 23.9587 44.7229 24.7607L44.3732 25.9802L45.3767 26.7602C47.9438 28.7487 49.416 31.7388 49.416 34.9633C49.4159 40.6907 44.7558 45.3489 39.0302 45.3489Z" fill="black"/>
</svg>
